<?xml version="1.0" standalone="no"?>
<!DOCTYPE svg PUBLIC "-//W3C//DTD SVG 20010904//EN"
 "http://www.w3.org/TR/2001/REC-SVG-20010904/DTD/svg10.dtd">
<svg version="1.0" xmlns="http://www.w3.org/2000/svg"
 width="152.000000pt" height="84.000000pt" viewBox="0 0 152.000000 84.000000"
 preserveAspectRatio="xMidYMid meet">

<g transform="translate(0.000000,84.000000) scale(0.100000,-0.100000)"
fill="#000000" stroke="none">
<path d="M28 829 c-16 -9 -18 -28 -18 -174 l0 -164 42 -12 c31 -8 43 -8 46 0
2 6 10 11 17 11 17 0 30 -33 15 -38 -7 -3 3 -13 22 -24 18 -12 39 -29 46 -39
7 -11 18 -19 24 -19 6 0 20 -7 30 -17 13 -11 18 -12 18 -3 0 10 3 10 15 0 8
-7 13 -16 10 -20 -3 -5 -1 -11 5 -15 6 -4 8 -11 5 -16 -3 -5 1 -6 10 -3 9 4
15 3 14 -2 -5 -28 2 -35 17 -19 15 15 17 14 30 -3 12 -17 32 -20 155 -27 94
-5 188 -17 278 -36 75 -16 219 -42 321 -59 201 -33 322 -55 358 -66 28 -8 28
-3 -3 47 -14 22 -25 50 -24 62 4 39 -1 57 -14 57 -18 0 -49 -39 -41 -53 3 -7
-3 -1 -15 13 -19 24 -19 25 -2 28 22 4 35 42 21 56 -6 6 -10 19 -10 29 0 13
-5 17 -16 13 -10 -4 -13 -2 -8 6 5 7 2 9 -8 5 -15 -5 -69 9 -95 26 -6 4 -14 3
-18 -2 -3 -6 -13 -7 -22 -4 -11 4 -14 3 -9 -5 4 -7 14 -12 22 -12 8 0 14 -4
14 -10 0 -14 -24 -12 -39 3 -10 10 -11 9 -6 -4 5 -13 1 -17 -19 -15 -31 1 -32
4 -5 27 14 12 19 24 14 38 -4 14 -1 21 12 23 25 6 70 -11 77 -28 3 -7 12 -11
20 -8 8 3 12 12 9 21 -4 11 -2 14 8 11 8 -3 14 -14 14 -26 0 -11 4 -24 8 -28
4 -4 7 2 7 14 0 12 5 22 10 22 6 0 10 7 10 15 0 10 -10 15 -30 15 -23 0 -30 4
-30 20 0 11 -7 20 -15 20 -8 0 -16 10 -17 23 0 12 -2 27 -3 32 -2 6 -3 18 -4
29 -1 13 -6 17 -21 13 -13 -3 -20 0 -20 8 0 18 17 28 25 15 3 -5 16 -9 28 -9
17 1 18 2 4 6 -9 2 -15 9 -12 14 4 5 -1 9 -9 9 -9 0 -16 4 -16 9 0 8 -21 17
-59 26 -7 2 -18 8 -24 14 -15 15 0 14 59 -4 27 -8 56 -12 66 -9 9 2 19 0 22
-5 4 -6 13 -8 21 -5 8 3 19 2 26 -2 6 -4 40 -9 75 -11 l64 -4 0 105 c0 94 -2
106 -19 116 -13 6 -160 10 -411 10 -367 0 -391 -1 -388 -17 3 -14 21 -20 90
-29 47 -7 109 -19 137 -29 73 -24 151 -93 89 -78 -13 3 -29 10 -35 16 -9 6
-13 6 -13 -2 0 -6 -7 -11 -15 -11 -8 0 -15 -5 -15 -11 0 -5 5 -7 10 -4 5 3 10
2 10 -3 0 -18 -40 -21 -49 -4 -5 10 -12 16 -15 15 -15 -7 -37 -2 -31 6 7 13
-16 26 -24 14 -5 -8 -38 -24 -61 -28 -31 -6 -53 -21 -60 -41 -14 -36 -36 -39
-71 -10 -17 14 -39 26 -49 26 -10 0 -25 6 -32 14 -13 12 -49 24 -103 32 -11 2
-27 5 -35 7 -8 3 -30 8 -47 12 -40 9 -34 21 17 35 38 10 40 13 40 50 l0 40
-192 0 c-113 0 -200 -5 -210 -11z m1120 -168 c6 -18 -36 9 -43 28 -5 11 -2 11
17 -1 12 -8 24 -20 26 -27z m-188 -15 c0 -3 -4 -8 -10 -11 -5 -3 -10 -1 -10 4
0 6 5 11 10 11 6 0 10 -2 10 -4z m-33 -22 c-3 -3 -12 -4 -19 -1 -8 3 -5 6 6 6
11 1 17 -2 13 -5z m9 -38 c10 -8 17 -17 14 -19 -3 -3 -16 3 -30 13 -29 22 -14
27 16 6z m-209 -32 c2 -5 -6 -15 -16 -21 -15 -10 -22 -9 -31 2 -6 8 -9 18 -6
23 7 11 49 8 53 -4z m70 -68 c9 -4 25 2 35 11 20 17 20 17 17 -7 -3 -17 0 -24
10 -22 8 2 4 -9 -10 -27 -29 -36 -56 -39 -69 -8 -5 13 -9 16 -10 7 -1 -9 -5
-6 -10 8 -5 12 -20 27 -32 32 -13 5 -17 9 -10 9 6 1 12 9 13 19 0 12 3 10 11
-8 7 -18 12 -21 15 -10 12 40 17 45 20 23 2 -12 11 -24 20 -27z m494 -43 c13
-16 12 -17 -3 -4 -10 7 -18 15 -18 17 0 8 8 3 21 -13z m-591 -7 c0 -8 7 -17
16 -20 9 -4 14 -9 10 -13 -7 -7 -46 25 -46 39 0 4 5 8 10 8 6 0 10 -6 10 -14z
m60 -95 c0 -17 7 -30 22 -36 32 -15 34 -35 4 -35 -16 0 -29 7 -33 18 -4 9 -13
23 -21 31 -7 7 -11 20 -8 28 3 8 6 19 6 24 0 4 7 6 15 3 8 -4 15 -18 15 -33z
m52 -6 c-5 -28 -14 -31 -32 -10 -14 17 -5 35 19 35 14 0 17 -6 13 -25z m-458
-13 c2 -4 -6 -9 -19 -10 -13 -1 -26 2 -29 6 -2 4 6 9 19 10 13 1 26 -2 29 -6z
m959 1 c4 -3 -1 -12 -11 -19 -16 -13 -16 -13 1 -14 9 0 17 -5 17 -11 0 -6 8
-9 18 -7 15 4 18 1 14 -18 -6 -33 -42 -33 -42 -1 0 15 -9 29 -24 37 -14 7 -22
18 -19 26 5 14 35 19 46 7z m-65 -25 c2 -9 12 -20 22 -23 12 -4 16 -12 13 -25
-3 -11 -11 -16 -19 -13 -8 3 -14 0 -14 -5 0 -13 -28 -42 -41 -42 -5 0 -3 14 6
30 9 17 12 30 7 30 -5 0 -15 11 -22 25 -7 13 -17 22 -23 18 -5 -3 -4 -9 3 -13
7 -5 8 -10 2 -14 -5 -3 -17 3 -27 14 -17 19 -17 20 3 27 38 14 86 9 90 -9z
m112 2 c0 -5 -7 -7 -15 -4 -8 4 -15 8 -15 10 0 2 7 4 15 4 8 0 15 -4 15 -10z
m-78 -93 c-24 -11 -38 -5 -28 11 3 6 16 8 28 4 l22 -5 -22 -10z"/>
<path d="M1215 390 c3 -5 8 -10 11 -10 2 0 4 5 4 10 0 6 -5 10 -11 10 -5 0 -7
-4 -4 -10z"/>
<path d="M1397 384 c-9 -9 4 -35 14 -28 5 3 9 12 9 20 0 14 -12 19 -23 8z"/>
<path d="M1432 359 c2 -7 10 -15 17 -17 8 -3 12 1 9 9 -2 7 -10 15 -17 17 -8
3 -12 -1 -9 -9z"/>
</g>
</svg>
